<svg width="22" height="22" viewBox="0 0 22 22" fill="none" xmlns="http://www.w3.org/2000/svg">
<path fill-rule="evenodd" clip-rule="evenodd" d="M1.98995 3.87351C2.30627 3.34875 4.05018 1.44377 5.2929 1.50127C5.66469 1.53311 5.99334 1.75698 6.26037 2.01783H6.2614C6.87351 2.61756 8.62974 4.88094 8.72834 5.35745C8.97175 6.52611 7.57806 7.19978 8.00428 8.37769C9.09089 11.0364 10.9632 12.9086 13.6232 13.994C14.8002 14.4212 15.4739 13.0287 16.6427 13.2711C17.1192 13.3707 19.3839 15.1257 19.9826 15.7388V15.7388C20.2425 16.0048 20.4684 16.3344 20.4992 16.7062C20.5454 18.0155 18.5222 19.7829 18.1278 20.0088C17.1973 20.6753 15.9833 20.663 14.5034 19.975C10.3737 18.2569 3.77391 11.782 2.02384 7.49657C1.35421 6.02496 1.30902 4.8029 1.98995 3.87351Z" stroke="#423831" stroke-width="1.2" stroke-linecap="round" stroke-linejoin="round"/>
<path d="M13.5654 1.75C17.2674 2.161 20.1904 5.081 20.6064 8.782" stroke="#423831" stroke-width="1.2" stroke-linecap="round" stroke-linejoin="round"/>
<path d="M13.5654 5.29297C15.3354 5.63797 16.7184 7.02097 17.0634 8.79097" stroke="#423831" stroke-width="1.2" stroke-linecap="round" stroke-linejoin="round"/>
</svg>
