<svg width="87" height="49" viewBox="0 0 87 49" fill="none" xmlns="http://www.w3.org/2000/svg">
<g id="Group 361">
<path id="path4" d="M45.4522 35.8611H45.379V35.8868C45.379 36.4057 45.6427 37.0183 46.0708 37.3641L47.039 38.1463L44.714 37.8709V33.6459L45.2086 34.1519C45.2208 34.1643 45.2546 34.1792 45.2726 34.1792L46.0382 34.1792C46.022 33.9891 46.0306 33.7883 46.0653 33.5797C46.159 33.0151 46.4203 32.427 46.6026 31.878L46.6051 31.871L48.6883 26.2331H50.9598L52.2314 30.1874L53.5144 34.1792L54.3382 34.1792C54.3562 34.1792 54.3901 34.1643 54.4022 34.1519L54.8968 33.6459V37.8709L52.5718 38.1463L53.54 37.3641C53.9681 37.0183 54.2318 36.4057 54.2318 35.8868V35.8611H45.4522ZM49.8801 34.1792C50.0747 33.9123 50.2358 33.62 50.3715 33.3342L48.6983 28.1067L47.257 32.0184C47.16 32.3175 47.0546 32.6138 46.9534 32.9117C46.877 33.1365 46.7982 33.3696 46.7484 33.6007C46.7043 33.8051 46.6901 33.9999 46.7068 34.1792H49.8801ZM39.3732 30.1699V26.99C39.3732 26.9009 39.3135 26.7816 39.2502 26.7109L38.6402 26.2331H42.8604L42.2504 26.7107C42.1875 26.782 42.1404 26.9011 42.1404 26.99V34.9452C42.1404 35.0341 42.1875 35.1533 42.2504 35.2244L42.8602 35.7022H38.6405L39.2502 35.2243C39.3135 35.1536 39.3732 35.0343 39.3732 34.9452V32.3884C39.1745 32.5538 38.9124 32.6555 38.5878 32.6555C38.0742 32.6555 37.6731 32.405 37.4982 32.0182V34.9452C37.4982 35.0374 37.5489 35.1593 37.6206 35.2248L38.1428 35.7022H34.0866L34.6024 35.2304C34.6678 35.1606 34.7309 35.037 34.7309 34.9452V30.8089C33.5254 30.5967 32.7471 29.7096 32.7471 28.5497C32.7471 27.3527 33.605 26.2474 34.9903 26.2331H38.1431L37.6205 26.7105C37.5489 26.7759 37.4982 26.8978 37.4982 26.99V29.8002C37.6986 29.7608 37.9007 29.7391 38.1117 29.7391C38.634 29.7391 39.07 29.894 39.3732 30.1699ZM37.4982 31.3357L37.8735 31.3039L37.917 31.5163C37.9794 31.8205 38.1874 32.0603 38.548 32.0603C39.0024 32.0603 39.188 31.6731 39.188 31.3062C39.188 30.6857 38.731 30.3464 38.0719 30.3464C37.8801 30.3464 37.6873 30.3723 37.4982 30.4079V31.3357ZM34.7309 30.1964V26.8624C33.8761 27.0005 33.4114 27.7613 33.4114 28.5497C33.4114 29.3799 33.9013 29.9939 34.7309 30.1964ZM5.88552 30.6325C6.77204 30.8778 7.48703 31.3854 7.92669 32.2562L9.28562 34.8733C9.34572 34.972 9.44676 35.0834 9.55089 35.144L9.55681 35.1474L10.4064 35.7022H6.12161L6.32294 35.3346C6.36324 35.2611 6.3693 35.1546 6.33383 35.0832L4.80407 32.1402V34.9452C4.80407 35.0369 4.86721 35.1606 4.93254 35.2304L5.44866 35.7022H1.39219L1.9144 35.2248C1.98605 35.1593 2.03677 35.0374 2.03677 34.9452V30.7549C0.856348 30.3875 0 29.5537 0 28.3562C0 27.1257 0.929813 26.2331 2.2962 26.2331H5.44892L4.93254 26.7048C4.86721 26.7746 4.80407 26.8983 4.80407 26.99V30.2832C5.79069 30.0793 6.48081 29.5583 6.73952 28.6015C6.76378 28.5119 6.78358 28.4214 6.80045 28.3304C6.87049 27.9526 6.88706 27.5711 6.94365 27.1925C6.99218 26.868 7.07887 26.485 7.3723 26.2676C7.53294 26.1486 7.72588 26.1001 7.93041 26.1001C8.29792 26.1001 8.67302 26.2331 9.02816 26.2331H9.3292L9.28475 26.5052C8.9648 28.4645 7.77596 29.9751 5.88552 30.6325ZM2.03677 30.0871V26.8541C1.17965 26.9479 0.664357 27.5144 0.664357 28.3441C0.664357 29.1984 1.23617 29.7792 2.03677 30.0871ZM15.755 32.1326V35.7022H12.2548L12.8648 35.2242C12.9282 35.1536 12.9877 35.0343 12.9877 34.9452V31.5015C11.9053 30.8892 11.2816 29.9046 11.2816 28.7189C11.2816 28.1052 11.4575 27.4701 11.8572 26.9696C12.1839 26.5607 12.6723 26.241 13.2472 26.2331H17.2017C18.8634 26.2331 20.1062 26.8334 20.1062 28.4892C20.1062 29.073 19.9492 29.6391 19.638 30.1494C18.8556 31.4328 17.3147 32.083 15.755 32.1326ZM12.9877 30.7861V26.8792C12.7428 26.9487 12.5328 27.1046 12.376 27.2936C12.0585 27.6761 11.946 28.1873 11.946 28.6585C11.946 29.4907 12.2987 30.2725 12.9877 30.7861ZM15.755 31.2767C16.8815 30.929 17.339 29.8909 17.339 28.8156C17.339 27.7731 16.9659 27.0029 15.755 26.9628V31.2767ZM26.6795 26.9612V29.7041C26.983 29.659 27.2904 29.6302 27.5971 29.6302C28.5213 29.6302 30.0256 29.9145 30.0256 30.9918C30.0256 31.546 29.5918 32.0511 28.9594 32.0511C28.3736 32.0511 27.834 31.5916 27.4366 31.2429C27.265 31.0924 26.9582 30.7994 26.6795 30.6111V34.9739H26.9094C27.9631 34.9739 29.1327 34.4658 29.7876 33.7098L30.8564 32.4758L30.4469 35.7022H23.2676L23.7898 35.2248C23.8614 35.1593 23.9122 35.0374 23.9122 34.9452V30.6304C22.713 30.43 21.8754 29.4932 21.8754 28.3562C21.8754 27.1258 22.8052 26.2331 24.1716 26.2331H30.4469L30.8564 29.4594L29.7876 28.2254C29.1327 27.4694 27.9631 26.9612 26.9094 26.9612H26.6795ZM23.9122 30.0196V26.8541C23.055 26.9479 22.5397 27.5144 22.5397 28.3441C22.5397 29.159 23.0799 29.824 23.9122 30.0196ZM27.2317 30.2434C27.4365 30.3962 27.627 30.5686 27.7918 30.7143C28.0404 30.9341 28.5929 31.4559 28.9594 31.4559C29.2269 31.4559 29.3612 31.2244 29.3612 31.0039C29.3612 30.35 28.1011 30.2255 27.5838 30.2255C27.4671 30.2255 27.3494 30.2323 27.2317 30.2434ZM73.2896 35.1501C73.3395 35.0725 73.3395 34.9579 73.3191 34.8717L71.1273 28.0663C71.0631 28.2502 70.9995 28.4343 70.9383 28.619C70.8374 28.9235 70.7445 29.2314 70.6919 29.5463C70.5908 30.1505 70.6549 30.7566 70.7458 31.3583C70.8979 32.3651 71.0586 33.9607 70.4989 34.8935C70.1519 35.4719 69.6017 35.7022 68.9017 35.7022C68.6935 35.7022 68.4978 35.6816 68.2956 35.637C68.1983 35.6155 68.0805 35.5788 67.9822 35.5707C67.9713 35.5697 67.9605 35.5692 67.9495 35.5692H67.5877L71.0963 26.1001H73.3685L74.56 29.849L76.1329 34.7425C76.1691 34.8501 76.2692 34.9685 76.3643 35.038L76.3703 35.0423L77.0105 35.5692H72.9461L73.2896 35.1501ZM82.6488 29.7362C84.2085 29.7857 85.7494 30.436 86.5319 31.7194C86.8429 32.2297 87 32.7958 87 33.3796C87 35.0353 85.7571 35.6357 84.0955 35.6357L80.137 35.6356C79.5661 35.6278 79.0776 35.3081 78.751 34.8991C78.3513 34.3987 78.1753 33.7635 78.1753 33.1498C78.1753 31.9641 78.799 30.9795 79.8815 30.3672V26.9236C79.8815 26.8344 79.822 26.7152 79.7586 26.6445L79.1486 26.1666H82.6488V29.7362ZM79.8815 31.0826C79.1925 31.5962 78.8398 32.3781 78.8398 33.2103C78.8398 33.6814 78.9523 34.1926 79.2698 34.5752C79.4266 34.7642 79.6366 34.92 79.8815 34.9895V31.0826ZM82.6488 30.592V34.9059C83.8597 34.8658 84.2328 34.0956 84.2328 33.0531C84.2328 31.9778 83.7753 30.9398 82.6488 30.592ZM61.2845 26.9145V29.6575C61.5881 29.6123 61.8955 29.5835 62.2022 29.5835C63.1264 29.5835 64.6307 29.8678 64.6307 30.9451C64.6307 31.4993 64.1969 32.0044 63.5644 32.0044C62.9787 32.0044 62.439 31.5449 62.0417 31.1962C61.87 31.0456 61.5633 30.7527 61.2845 30.5644V34.9272H61.5145C62.5681 34.9272 63.7378 34.4192 64.3926 33.6631L65.4614 32.429L65.052 35.6555H57.8726L58.3949 35.1781C58.4665 35.1126 58.5172 34.9907 58.5172 34.8985V30.5837C57.318 30.3833 56.4805 29.4465 56.4805 28.3095C56.4805 27.079 57.4103 26.1863 58.7767 26.1863H65.052L65.4614 29.4128L64.3926 28.1787C63.7378 27.4226 62.5681 26.9145 61.5145 26.9145H61.2845ZM58.5172 29.9729V26.8074C57.6601 26.9013 57.1448 27.4677 57.1448 28.2974C57.1448 29.1123 57.6849 29.7773 58.5172 29.9729ZM61.8368 30.1967C62.0416 30.3495 62.232 30.5218 62.3969 30.6676C62.6455 30.8873 63.1979 31.4092 63.5644 31.4092C63.8319 31.4092 63.9662 31.1777 63.9662 30.9572C63.9662 30.3033 62.7062 30.1788 62.1889 30.1788C62.0722 30.1788 61.9545 30.1856 61.8368 30.1967Z" fill="#423831"/>
<path id="path6" d="M18.0189 46.2045C18.0961 46.1919 18.1718 46.1684 18.2391 46.1283C18.3325 46.0726 18.4156 46.0028 18.4824 45.9153L19.0492 45.1743C19.1387 45.0573 19.2411 44.9129 19.2967 44.7747C19.3082 44.7461 19.3353 44.6714 19.3114 44.642C19.2773 44.6002 19.1309 44.591 19.0836 44.5898L18.9562 44.5867V44.195L19.0912 44.1999C19.2073 44.204 19.3234 44.208 19.4395 44.212C19.5482 44.2157 19.657 44.218 19.7657 44.218C19.9264 44.218 20.0943 44.2169 20.2544 44.2004L20.3979 44.1857V44.5736L20.2841 44.5887C20.1752 44.6032 20.073 44.641 19.9777 44.6968C19.8601 44.7656 19.7567 44.8756 19.6735 44.9821L18.7072 46.2456C18.7784 46.2562 18.849 46.2699 18.919 46.2869C19.1189 46.3355 19.2976 46.4298 19.4476 46.5749C19.6184 46.7399 19.7113 46.9704 19.763 47.2013L19.9342 47.9668C19.9592 48.0786 19.9935 48.2265 20.0424 48.33C20.0558 48.3583 20.071 48.3625 20.1014 48.3609C20.1352 48.3591 20.165 48.3497 20.1907 48.3268C20.2374 48.2851 20.2798 48.233 20.3172 48.1826L20.3949 48.0781L20.6881 48.2992L20.6174 48.4064C20.5407 48.5228 20.4498 48.6293 20.3419 48.7162C20.2105 48.822 20.041 48.854 19.8778 48.854C19.7125 48.854 19.5609 48.8035 19.4267 48.7042C19.2484 48.5723 19.165 48.3037 19.1189 48.0933L18.9532 47.3386C18.9235 47.196 18.8864 47.0518 18.8352 46.9155C18.799 46.8196 18.7428 46.7414 18.6597 46.6839C18.5583 46.6137 18.3964 46.6005 18.278 46.6005H18.0189V47.9908C18.0189 48.0749 18.0215 48.196 18.0476 48.2763C18.058 48.3084 18.0737 48.3265 18.1049 48.3376C18.1835 48.3653 18.2918 48.3741 18.3743 48.3792L18.4971 48.3867V48.7812L18.3553 48.7685C18.2459 48.7588 18.135 48.7554 18.0252 48.7538C17.8891 48.7517 17.753 48.7508 17.6168 48.7508C17.4738 48.7508 17.3309 48.7516 17.1878 48.7538C17.0836 48.7553 16.9774 48.7583 16.8735 48.7685L16.7307 48.7824V48.3867L16.8535 48.3792C16.936 48.3741 17.0442 48.3653 17.1228 48.3376C17.154 48.3265 17.1697 48.3085 17.1801 48.2764C17.2062 48.196 17.2088 48.075 17.2088 47.9908V44.9779C17.2088 44.8955 17.2066 44.769 17.1805 44.6904C17.1695 44.6573 17.1516 44.6392 17.1197 44.627C17.0455 44.5986 16.9359 44.5922 16.8574 44.5898L16.7307 44.5859V44.1932L16.8675 44.1999C16.9748 44.2053 17.0824 44.2087 17.1898 44.212C17.3321 44.2163 17.4745 44.218 17.6168 44.218C17.7523 44.218 17.8878 44.216 18.0233 44.212C18.1358 44.2086 18.2484 44.205 18.3609 44.1999L18.4971 44.1938V44.5859L18.3705 44.5898C18.2919 44.5922 18.1822 44.5986 18.108 44.627C18.0762 44.6392 18.0583 44.6574 18.0472 44.6904C18.0211 44.769 18.0189 44.8956 18.0189 44.9779V46.2045ZM24.3206 48.3049C24.3746 48.2331 24.4196 48.1501 24.4565 48.0719L24.5866 47.7959L23.0366 44.8659C23.0076 44.811 22.9283 44.6653 22.8784 44.6292C22.8629 44.6179 22.8289 44.5959 22.8088 44.5959H22.6783V44.189L22.8189 44.2002C22.8701 44.2043 22.9215 44.207 22.9729 44.2089C23.0298 44.211 23.0869 44.213 23.1438 44.215C23.2053 44.2172 23.2668 44.218 23.3284 44.218C23.4189 44.218 23.5094 44.218 23.5999 44.218C23.6936 44.218 23.7872 44.216 23.8808 44.2121C23.9701 44.2083 24.0594 44.2044 24.1486 44.1999L24.2854 44.1932V44.5959H24.1549C24.0616 44.5959 23.9545 44.6094 23.8743 44.6626C23.8438 44.6828 23.9072 44.8243 23.9156 44.8417L24.9998 46.9226L25.8149 45.24C25.8705 45.1252 25.9657 44.9166 25.9635 44.7858C25.9626 44.7271 25.9502 44.679 25.8969 44.6516C25.8046 44.604 25.67 44.5923 25.5684 44.5898L25.441 44.5867V44.195L25.5761 44.1999C25.6921 44.204 25.8081 44.208 25.9242 44.212C26.0329 44.2157 26.1417 44.218 26.2505 44.218C26.3323 44.218 26.4148 44.2171 26.4965 44.2121C26.5592 44.2083 26.6219 44.2044 26.6845 44.2001L26.8237 44.1905V44.5645L26.7201 44.587C26.661 44.5998 26.6043 44.6516 26.5645 44.6956C26.4755 44.7945 26.397 44.9395 26.3376 45.0564L25.0465 47.7019L24.809 48.1961C24.7658 48.2858 24.7188 48.3769 24.6648 48.4602C24.6235 48.5238 24.5771 48.5844 24.5245 48.6385C24.4485 48.7168 24.3587 48.7748 24.2562 48.8083C24.17 48.8365 24.0802 48.854 23.9895 48.854C23.8531 48.854 23.7232 48.8184 23.6144 48.7317C23.4976 48.6387 23.4458 48.5056 23.4458 48.3553C23.4458 48.2273 23.4871 48.1115 23.5785 48.0234C23.6649 47.9402 23.771 47.8991 23.8892 47.8991C23.9975 47.8991 24.0981 47.9313 24.1831 48.0013C24.2757 48.0774 24.3176 48.1854 24.3206 48.3049ZM29.1542 48.4223C29.2084 48.3945 29.2574 48.3547 29.3022 48.3027C29.4301 48.1539 29.5152 47.9579 29.5739 47.7705C29.6564 47.5068 29.7108 47.2315 29.7489 46.9575C29.7937 46.6351 29.8258 46.3108 29.8482 45.9859C29.8716 45.6471 29.8913 45.308 29.9131 44.9691C29.9166 44.9143 29.9249 44.6997 29.8832 44.6568C29.834 44.6061 29.6251 44.5922 29.5604 44.5897L29.4347 44.5849V44.1932L29.5715 44.1999C29.6693 44.2047 29.7671 44.2085 29.8649 44.212C29.9676 44.2157 30.0704 44.218 30.1733 44.218C30.2578 44.218 30.3424 44.2152 30.4268 44.2091C30.5153 44.2028 30.6041 44.1998 30.6928 44.1998C30.8306 44.1998 30.9686 44.2021 31.1064 44.209C31.2496 44.2161 31.3935 44.218 31.5369 44.218C31.6186 44.218 31.7002 44.2169 31.7818 44.215C31.8654 44.2129 31.9489 44.211 32.0325 44.2089C32.0983 44.2072 32.1644 44.205 32.2301 44.2001L32.3699 44.1898V44.5859L32.2433 44.5898C32.1647 44.5922 32.0551 44.5986 31.9808 44.627C31.949 44.6392 31.9311 44.6573 31.9201 44.6904C31.8939 44.769 31.8917 44.8955 31.8917 44.9779V47.9908C31.8917 48.075 31.8944 48.1959 31.9204 48.2764C31.9308 48.3085 31.9465 48.3265 31.9777 48.3376C32.0563 48.3653 32.1646 48.3741 32.2471 48.3792L32.3699 48.3867V48.7824L32.2271 48.7685C32.1232 48.7583 32.017 48.7553 31.9128 48.7538C31.7698 48.7516 31.6267 48.7508 31.4837 48.7508C31.3259 48.7508 31.168 48.7518 31.0101 48.7538C30.8824 48.7554 30.7533 48.7586 30.6259 48.7686L30.4854 48.7797V48.3853L30.6097 48.3791C30.7198 48.3737 30.8527 48.365 30.9595 48.335C30.998 48.3242 31.0315 48.3068 31.0475 48.2672C31.0777 48.1925 31.0816 48.0706 31.0816 47.9908V44.9779C31.0816 44.9149 31.0757 44.6919 31.0299 44.6431C30.9856 44.596 30.7923 44.5898 30.7341 44.5898H30.6574C30.5857 44.5898 30.4686 44.5926 30.4011 44.62C30.3725 44.6316 30.3603 44.6516 30.3524 44.6818C30.3274 44.777 30.3173 44.8912 30.3092 44.9893C30.2837 45.2991 30.2614 45.6091 30.2415 45.9193C30.2198 46.2566 30.1893 46.5934 30.1493 46.929C30.1119 47.2427 30.0527 47.5556 29.9614 47.8576C29.8845 48.1118 29.771 48.3625 29.5979 48.563C29.426 48.762 29.2022 48.854 28.9454 48.854C28.7944 48.854 28.6511 48.8172 28.5179 48.744C28.3533 48.6534 28.2776 48.496 28.2776 48.3067C28.2776 48.1705 28.322 48.0479 28.4206 47.9554C28.5145 47.8673 28.6297 47.8262 28.7564 47.8262C28.8663 47.8262 28.9698 47.8572 29.0551 47.9299C29.1441 48.0056 29.188 48.1093 29.188 48.2278C29.188 48.2953 29.178 48.3614 29.1542 48.4223ZM36.0978 47.4287L37.8696 44.8445C37.8663 44.7926 37.8598 44.7346 37.8451 44.6904C37.8341 44.6573 37.8161 44.6391 37.7843 44.627C37.7101 44.5986 37.6005 44.5922 37.522 44.5898L37.3953 44.5859V44.1938L37.5316 44.1999C37.645 44.205 37.7585 44.2086 37.872 44.212C38.0064 44.2159 38.141 44.218 38.2755 44.218C38.4179 44.218 38.5603 44.2163 38.7027 44.212C38.8101 44.2087 38.9176 44.2053 39.025 44.1999L39.1617 44.1932V44.5859L39.0351 44.5898C38.9565 44.5922 38.8468 44.5986 38.7726 44.627C38.7408 44.6392 38.7228 44.6573 38.7118 44.6904C38.6857 44.769 38.6835 44.8955 38.6835 44.9779V47.9908C38.6835 48.075 38.6861 48.196 38.7122 48.2764C38.7226 48.3085 38.7383 48.3265 38.7695 48.3376C38.8481 48.3653 38.9564 48.3741 39.0389 48.3792L39.1617 48.3867V48.7823L39.0189 48.7685C38.915 48.7583 38.8088 48.7553 38.7046 48.7538C38.5616 48.7516 38.4186 48.7508 38.2755 48.7508C38.1404 48.7508 38.0052 48.7518 37.8701 48.7538C37.7594 48.7554 37.6475 48.7587 37.5371 48.7685L37.3953 48.7812V48.3867L37.5181 48.3792C37.6007 48.3741 37.7088 48.3653 37.7874 48.3376C37.8186 48.3265 37.8343 48.3085 37.8447 48.2764C37.8708 48.1959 37.8734 48.075 37.8734 47.9908V45.54L36.1019 48.1238C36.1054 48.1752 36.112 48.2314 36.1265 48.2763C36.1369 48.3084 36.1527 48.3265 36.1838 48.3376C36.2624 48.3653 36.3707 48.3741 36.4532 48.3792L36.576 48.3867V48.7812L36.4342 48.7685C36.3249 48.7588 36.2139 48.7554 36.1041 48.7538C35.968 48.7517 35.8319 48.7508 35.6957 48.7508C35.5527 48.7508 35.4098 48.7516 35.2668 48.7538C35.1625 48.7553 35.0564 48.7583 34.9525 48.7685L34.8097 48.7824V48.3867L34.9325 48.3792C35.015 48.3741 35.1231 48.3653 35.2018 48.3375C35.233 48.3265 35.2487 48.3085 35.2591 48.2764C35.2851 48.1959 35.2878 48.075 35.2878 47.9908V44.9779C35.2878 44.8955 35.2856 44.769 35.2594 44.6904C35.2484 44.6573 35.2305 44.6392 35.1987 44.627C35.1244 44.5986 35.0149 44.5922 34.9363 44.5898L34.8097 44.5859V44.1932L34.9465 44.1999C35.0538 44.2053 35.1613 44.2087 35.2687 44.212C35.411 44.2163 35.5534 44.218 35.6957 44.218C35.8313 44.218 35.9668 44.216 36.1023 44.212C36.2148 44.2086 36.3273 44.205 36.4398 44.1999L36.576 44.1938V44.5859L36.4494 44.5898C36.3708 44.5922 36.2612 44.5986 36.1869 44.627C36.1551 44.6391 36.1372 44.6574 36.1262 44.6905C36.1 44.769 36.0978 44.8956 36.0978 44.9779V47.4287ZM44.5472 46.6673H42.8896V47.9908C42.8896 48.0748 42.8922 48.196 42.9183 48.2763C42.9287 48.3084 42.9445 48.3265 42.9757 48.3376C43.0542 48.3653 43.1625 48.3741 43.245 48.3792L43.3678 48.3867V48.7812L43.226 48.7685C43.1166 48.7588 43.0057 48.7554 42.8959 48.7538C42.7598 48.7517 42.6236 48.7508 42.4875 48.7508C42.3445 48.7508 42.2015 48.7516 42.0585 48.7538C41.9543 48.7553 41.8481 48.7583 41.7443 48.7685L41.6015 48.7824V48.3867L41.7242 48.3792C41.8068 48.3741 41.9149 48.3653 41.9935 48.3375C42.0247 48.3265 42.0404 48.3085 42.0508 48.2764C42.0769 48.1959 42.0796 48.075 42.0796 47.9908V44.9779C42.0796 44.8955 42.0774 44.769 42.0512 44.6904C42.0402 44.6573 42.0222 44.6392 41.9905 44.627C41.9162 44.5986 41.8067 44.5922 41.7281 44.5898L41.6015 44.5859V44.1932L41.7382 44.1999C41.8456 44.2053 41.9531 44.2087 42.0605 44.212C42.2028 44.2163 42.3452 44.218 42.4875 44.218C42.623 44.218 42.7586 44.216 42.894 44.212C43.0065 44.2086 43.1191 44.205 43.2316 44.1999L43.3678 44.1938V44.5859L43.2411 44.5898C43.1626 44.5922 43.053 44.5986 42.9787 44.627C42.9469 44.6392 42.929 44.6574 42.9179 44.6905C42.8917 44.769 42.8896 44.8956 42.8896 44.9779V46.2772H44.5472V44.9779C44.5472 44.8955 44.545 44.769 44.5188 44.6904C44.5078 44.6573 44.4899 44.6392 44.4581 44.627C44.3838 44.5986 44.2742 44.5922 44.1956 44.5898L44.069 44.5859V44.1938L44.2052 44.1999C44.3186 44.205 44.4321 44.2086 44.5456 44.212C44.6801 44.2159 44.8147 44.218 44.9493 44.218C45.0916 44.218 45.234 44.2163 45.3763 44.212C45.4837 44.2087 45.5912 44.2053 45.6986 44.1999L45.8353 44.1932V44.5859L45.7087 44.5898C45.6301 44.5922 45.5206 44.5986 45.4463 44.627C45.4146 44.6392 45.3966 44.6573 45.3856 44.6904C45.3594 44.769 45.3572 44.8955 45.3572 44.9779V47.9908C45.3572 48.075 45.3599 48.1959 45.386 48.2764C45.3964 48.3085 45.4121 48.3265 45.4433 48.3375C45.5219 48.3653 45.63 48.3741 45.7126 48.3792L45.8353 48.3867V48.7824L45.6925 48.7685C45.5887 48.7583 45.4825 48.7553 45.3782 48.7538C45.2352 48.7516 45.0923 48.7508 44.9493 48.7508C44.8141 48.7508 44.6789 48.7518 44.5437 48.7538C44.4331 48.7554 44.3211 48.7587 44.2108 48.7685L44.069 48.7812V48.3867L44.1918 48.3792C44.2744 48.3741 44.3825 48.3653 44.4612 48.3375C44.4924 48.3265 44.5081 48.3085 44.5185 48.2764C44.5445 48.1959 44.5472 48.075 44.5472 47.9908V46.6673ZM50.4203 47.1411H49.1729L48.9642 47.6989C48.9164 47.8267 48.8504 48.0209 48.8548 48.1595C48.8569 48.2226 48.8714 48.279 48.9265 48.3125C49.0115 48.3642 49.1447 48.3766 49.2411 48.379L49.3685 48.3821V48.7789L49.2287 48.7687C49.1162 48.7605 49.0033 48.7556 48.8905 48.7538C48.78 48.7519 48.6695 48.7508 48.559 48.7508C48.4767 48.7508 48.3943 48.7513 48.3119 48.7537C48.2523 48.7555 48.1926 48.7598 48.1335 48.7679L47.9858 48.788V48.4085L48.0845 48.383C48.1537 48.3651 48.2194 48.3175 48.2722 48.2697C48.3572 48.1927 48.4214 48.0441 48.461 47.9362L49.8806 44.1694H49.97C49.9857 44.1694 50.0014 44.1694 50.0172 44.1694C50.0329 44.1694 50.0486 44.1694 50.0644 44.1694H50.1537L51.6265 48.0758C51.6548 48.1509 51.709 48.2729 51.7773 48.3191C51.8174 48.3462 51.8714 48.3761 51.9203 48.3792L52.0427 48.3872V48.783L51.8992 48.7684C51.807 48.7589 51.7133 48.7554 51.6207 48.7538C51.5073 48.7517 51.3939 48.7508 51.2805 48.7508C51.1375 48.7508 50.9945 48.7516 50.8515 48.7538C50.7472 48.7553 50.6411 48.7583 50.5372 48.7685L50.3944 48.7824V48.3842L50.5197 48.3791C50.5748 48.3768 50.7714 48.3627 50.8088 48.321C50.8299 48.2733 50.7688 48.0971 50.7509 48.0501L50.4203 47.1411ZM55.4872 47.0317V47.9908C55.4872 48.0708 55.4912 48.1923 55.5215 48.2672C55.5375 48.3068 55.571 48.3242 55.6095 48.335C55.7162 48.365 55.8491 48.3736 55.9592 48.3791L56.0835 48.3853V48.7797L55.943 48.7686C55.8165 48.7587 55.6885 48.7554 55.5617 48.7538C55.4029 48.7517 55.244 48.7508 55.0852 48.7508C54.9422 48.7508 54.7992 48.7516 54.6562 48.7538C54.552 48.7553 54.4458 48.7583 54.3419 48.7685L54.1991 48.7824V48.3867L54.3218 48.3792C54.4044 48.3741 54.5125 48.3653 54.5912 48.3375C54.6224 48.3265 54.6381 48.3085 54.6485 48.2764C54.6745 48.1959 54.6772 48.075 54.6772 47.9908V44.9779C54.6772 44.8955 54.675 44.769 54.6488 44.6904C54.6378 44.6573 54.6199 44.6392 54.5882 44.627C54.5138 44.5986 54.4043 44.5922 54.3257 44.5898L54.1991 44.5859V44.1932L54.3359 44.1999C54.4432 44.2053 54.5507 44.2087 54.6582 44.212C54.7886 44.2159 54.9192 44.218 55.0498 44.218C55.2259 44.218 55.402 44.2162 55.578 44.212C55.6989 44.2091 55.8203 44.2058 55.9411 44.2058C56.347 44.2058 56.7882 44.2832 57.0979 44.5752C57.3698 44.8316 57.4944 45.1602 57.4944 45.5368C57.4944 45.7057 57.4655 45.8731 57.4179 46.0345C57.3635 46.2189 57.2696 46.3832 57.146 46.5276C57.0041 46.6934 56.8197 46.8106 56.6225 46.8941C56.3708 47.0007 56.0814 47.0317 55.8113 47.0317H55.4872ZM61.1456 47.4287L62.9173 44.8445C62.914 44.7926 62.9075 44.7346 62.8928 44.6904C62.8818 44.6573 62.8639 44.6392 62.8321 44.627C62.7578 44.5986 62.6483 44.5922 62.5697 44.5898L62.4431 44.5859V44.1938L62.5793 44.1999C62.6927 44.205 62.8063 44.2086 62.9197 44.212C63.0542 44.2159 63.1887 44.218 63.3233 44.218C63.4657 44.218 63.6081 44.2163 63.7504 44.212C63.8578 44.2087 63.9653 44.2052 64.0727 44.1999L64.2095 44.1932V44.5859L64.0828 44.5898C64.0042 44.5922 63.8946 44.5986 63.8203 44.627C63.7885 44.6392 63.7706 44.6573 63.7596 44.6904C63.7334 44.769 63.7312 44.8955 63.7312 44.9779V47.9908C63.7312 48.075 63.7339 48.1959 63.7599 48.2764C63.7703 48.3085 63.786 48.3265 63.8172 48.3376C63.8959 48.3653 64.0041 48.3741 64.0867 48.3792L64.2095 48.3867V48.7823L64.0666 48.7685C63.9628 48.7583 63.8566 48.7553 63.7523 48.7538C63.6093 48.7516 63.4663 48.7508 63.3233 48.7508C63.1881 48.7508 63.053 48.7518 62.9179 48.7538C62.8071 48.7554 62.6952 48.7587 62.5849 48.7685L62.4431 48.7812V48.3867L62.5658 48.3792C62.6484 48.3741 62.7565 48.3653 62.8352 48.3375C62.8664 48.3265 62.8821 48.3085 62.8925 48.2764C62.9185 48.1959 62.9212 48.075 62.9212 47.9908V45.54L61.1497 48.1238C61.1531 48.1752 61.1597 48.2315 61.1742 48.2763C61.1847 48.3084 61.2004 48.3265 61.2316 48.3376C61.3102 48.3653 61.4185 48.3741 61.501 48.3792L61.6238 48.3867V48.7812L61.482 48.7685C61.3726 48.7588 61.2617 48.7554 61.1519 48.7538C61.0158 48.7517 60.8796 48.7508 60.7435 48.7508C60.6005 48.7508 60.4575 48.7516 60.3145 48.7538C60.2103 48.7553 60.1041 48.7583 60.0002 48.7685L59.8574 48.7824V48.3867L59.9802 48.3792C60.0627 48.3741 60.1709 48.3653 60.2495 48.3376C60.2807 48.3265 60.2964 48.3085 60.3068 48.2764C60.3329 48.196 60.3355 48.075 60.3355 47.9908V44.9779C60.3355 44.8955 60.3333 44.769 60.3072 44.6904C60.2962 44.6573 60.2782 44.6392 60.2464 44.627C60.1722 44.5986 60.0626 44.5922 59.984 44.5898L59.8574 44.5859V44.1932L59.9942 44.1999C60.1015 44.2053 60.2091 44.2087 60.3165 44.212C60.4587 44.2163 60.6011 44.218 60.7435 44.218C60.879 44.218 61.0145 44.216 61.15 44.212C61.2625 44.2086 61.3751 44.205 61.4876 44.1999L61.6238 44.1938V44.5859L61.4971 44.5898C61.4186 44.5922 61.3089 44.5986 61.2347 44.627C61.2029 44.6392 61.1849 44.6574 61.1739 44.6904C61.1477 44.7689 61.1456 44.8957 61.1456 44.9779V47.4287ZM68.981 46.728H68.5212C68.431 46.728 68.3232 46.7422 68.252 46.8051C68.1794 46.8691 68.1325 46.9562 68.1013 47.048C68.0528 47.191 68.0145 47.3392 67.9815 47.4851L67.8517 48.0925C67.8075 48.2996 67.7279 48.5534 67.5609 48.691C67.4252 48.8027 67.2659 48.854 67.0926 48.854C66.936 48.854 66.7742 48.8243 66.6445 48.7286C66.5286 48.6428 66.4326 48.5274 66.3529 48.4063L66.2824 48.2992L66.5717 48.0809L66.6501 48.1787C66.6916 48.2305 66.7365 48.2836 66.7849 48.3287C66.8086 48.3509 66.8375 48.3593 66.869 48.3609C66.9023 48.3627 66.9163 48.3547 66.9309 48.3238C66.9792 48.2218 67.0118 48.0777 67.0361 47.9674L67.1719 47.3478C67.2216 47.1212 67.3105 46.8856 67.4785 46.7236C67.5481 46.6565 67.6305 46.604 67.719 46.5627C67.695 46.5516 67.6714 46.5398 67.6482 46.5271C67.4265 46.4061 67.2318 46.2381 67.1199 46.0028C67.0297 45.8129 66.9739 45.6094 66.9739 45.3971C66.9739 45.0488 67.116 44.7628 67.375 44.5407C67.6882 44.2722 68.1324 44.2058 68.5271 44.2058C68.648 44.2058 68.7694 44.2091 68.8902 44.212C69.0663 44.2162 69.2424 44.218 69.4185 44.218C69.549 44.218 69.6796 44.2159 69.8101 44.212C69.9175 44.2087 70.0251 44.2053 70.1324 44.1999L70.2692 44.1932V44.5859L70.1425 44.5898C70.0639 44.5922 69.9544 44.5986 69.8801 44.627C69.8483 44.6392 69.8304 44.6573 69.8194 44.6904C69.7932 44.769 69.7911 44.8955 69.7911 44.9779V47.9908C69.7911 48.075 69.7937 48.196 69.8198 48.2764C69.8301 48.3085 69.8458 48.3265 69.877 48.3376C69.9557 48.3653 70.0639 48.3741 70.1464 48.3792L70.2692 48.3867V48.7824L70.1263 48.7685C70.0225 48.7583 69.9163 48.7553 69.812 48.7538C69.669 48.7516 69.5261 48.7508 69.3831 48.7508C69.2479 48.7508 69.1127 48.7518 68.9775 48.7538C68.8668 48.7554 68.7549 48.7587 68.6445 48.7685L68.5028 48.7812V48.3867L68.6256 48.3792C68.7081 48.3741 68.8164 48.3653 68.895 48.3376C68.9262 48.3265 68.9419 48.3085 68.9523 48.2764C68.9784 48.1959 68.981 48.075 68.981 47.9908V46.728ZM50.2784 46.751L49.8054 45.4506L49.3189 46.751H50.2784ZM55.4872 46.6417H55.7523C55.936 46.6417 56.1628 46.6169 56.3165 46.5029C56.4406 46.411 56.5241 46.2918 56.569 46.1412C56.621 45.967 56.643 45.7856 56.643 45.6036C56.643 45.3499 56.6098 45.0307 56.4502 44.8248C56.2986 44.6294 56.0208 44.5898 55.7936 44.5898C55.74 44.5898 55.5788 44.596 55.5402 44.6442C55.4928 44.7036 55.4872 44.9055 55.4872 44.9779V46.6417ZM68.981 46.3379V44.9779C68.981 44.9055 68.9755 44.7036 68.928 44.6442C68.8894 44.596 68.7283 44.5898 68.6746 44.5898C68.4565 44.5898 68.1681 44.6228 68.0139 44.8026C67.8681 44.9727 67.8252 45.2007 67.8252 45.4213C67.8252 45.5884 67.8453 45.757 67.898 45.9156C67.9424 46.0494 68.0253 46.148 68.1426 46.2204C68.3013 46.3183 68.5353 46.3379 68.7159 46.3379H68.981Z" fill="#423831"/>
<path id="path8" d="M39.5863 13.7476C40.2243 13.4254 40.935 13.2172 41.5771 12.8887C42.0072 12.6687 43.1845 11.9028 43.5154 11.9192C43.7578 11.9312 45.0375 12.7066 45.3774 12.8782C45.9778 13.1812 46.9391 13.3582 47.3653 13.8358C47.1214 14.0757 46.0914 14.485 45.6685 14.6246C43.8098 15.2379 40.4574 14.9049 39.5863 13.7476ZM49.4902 11.8586C48.3178 11.6595 45.8739 10.6191 45.1677 9.97718C45.3167 8.41348 46.2498 7.64949 45.2147 4.74303C44.9969 4.13135 44.5531 3.78107 45.8268 2.85955C46.4672 2.39631 47.4539 2.25661 48.2744 2.6625C49.4108 3.22454 50.2848 4.86978 50.561 6.62742C50.8976 8.76844 50.0876 10.2581 49.4902 11.8586ZM41.7827 10.0941C41.1087 10.5486 38.3771 11.7363 37.4826 11.8521C36.8395 9.86127 36.1709 9.43692 36.4018 6.78202C36.5647 4.91059 38.2794 1.06993 41.0032 2.86185C42.3672 3.75929 42.0699 3.93061 41.7561 4.77144C41.4495 5.59267 41.2618 6.46925 41.2809 7.40592C41.3024 8.45575 41.7695 9.24832 41.7827 10.0941ZM52.7833 9.62581C53.0841 6.86566 52.8593 4.60912 51.5769 2.6692C50.4851 1.01762 49.0189 -0.230541 46.1241 0.0899594C44.7492 0.747591 44.9267 0.525433 43.5301 1.6373C42.6036 1.2452 41.5123 -0.359494 38.9865 0.0735073C34.945 0.76625 33.1307 6.51713 34.4431 10.6298C34.6932 11.4135 35.2276 12.3393 35.3374 13.0482C34.656 13.3996 33.9179 14.0946 33.616 15.015C33.2547 16.1171 33.4777 17.5688 34.8099 17.2944C36.2807 16.9913 35.6053 13.9062 37.5976 15.3531C40.6905 17.5992 44.2372 18.1069 47.7856 16.3247C48.5283 15.9517 49.6312 15.0732 50.15 14.902C51.4808 15.6044 50.7495 15.6565 51.3485 16.6975C52.1502 18.0904 54.463 17.0647 53.136 14.5177C52.6094 13.507 52.0651 13.5098 51.6382 12.9004C51.8127 12.3529 52.0977 11.9056 52.3004 11.3575C52.5198 10.7642 52.6019 10.2021 52.7833 9.62581Z" fill="#423831"/>
</g>
</svg>
